<svg width="150" height="150" viewBox="0 0 150 150" fill="none" xmlns="http://www.w3.org/2000/svg">
<path d="M55.7566 45.357C55.1231 44.4522 55.343 43.2051 56.2478 42.5715L98.2701 13.1472C99.1749 12.5136 100.422 12.7335 101.056 13.6383L108.277 23.9514C108.91 24.8562 108.691 26.1033 107.786 26.7368L65.7634 56.1612C64.8586 56.7947 63.6115 56.5748 62.9779 55.67L55.7566 45.357Z" fill="white"/>
<path d="M42.327 125.228C41.6935 124.323 41.9134 123.076 42.8182 122.442L84.8405 93.0179C85.7453 92.3843 86.9924 92.6042 87.626 93.509L94.8473 103.822C95.4808 104.727 95.2609 105.974 94.3561 106.608L52.3338 136.032C51.429 136.665 50.1819 136.446 49.5483 135.541L42.327 125.228Z" fill="white"/>
<path d="M105.219 55.308C106.124 54.6745 107.371 54.8944 108.005 55.7992L137.429 97.8215C138.062 98.7263 137.843 99.9734 136.938 100.607L126.625 107.828C125.72 108.462 124.473 108.242 123.839 107.337L94.4148 65.3148C93.7813 64.41 94.0012 63.1629 94.906 62.5293L105.219 55.308Z" fill="white"/>
<path d="M109.643 28.7641C110.548 28.1306 111.795 28.3505 112.428 29.2553L141.853 71.2776C142.486 72.1824 142.267 73.4295 141.362 74.0631L131.049 81.2844C130.144 81.9179 128.897 81.698 128.263 80.7932L98.8388 38.7709C98.2053 37.8661 98.4252 36.619 99.33 35.9854L109.643 28.7641Z" fill="white"/>
<path d="M24.4814 40.9301C25.3862 40.2965 26.6333 40.5164 27.2668 41.4212L56.6912 83.4436C57.3247 84.3484 57.1048 85.5955 56.2 86.229L45.8869 93.4503C44.9821 94.0839 43.735 93.864 43.1015 92.9592L13.6771 50.9368C13.0436 50.032 13.2635 48.7849 14.1683 48.1514L24.4814 40.9301Z" fill="white"/>
<path d="M19.9514 67.58C20.8562 66.9464 22.1033 67.1663 22.7368 68.0711L52.1612 110.093C52.7947 110.998 52.5748 112.245 51.67 112.879L41.357 120.1C40.4522 120.734 39.2051 120.514 38.5715 119.609L9.14715 77.5867C8.5136 76.6819 8.7335 75.4348 9.63831 74.8013L19.9514 67.58Z" fill="white"/>
<rect x="50.1855" y="70.2626" width="55.2998" height="16.5899" rx="2" transform="rotate(-35 50.1855 70.2626)" fill="white"/>
<rect x="45.7099" y="96.9395" width="55.2998" height="16.5899" rx="2" transform="rotate(-35 45.7099 96.9395)" fill="white"/>
</svg>
