<svg width="645" height="413" viewBox="0 0 645 413" fill="none" xmlns="http://www.w3.org/2000/svg">
<path d="M644.137 0.36499H0.274902V412.723H644.137V0.36499Z" fill="#535353"/>
<path d="M625.726 52.085H18.686V388.328H625.726V52.085Z" fill="#343A40"/>
<path d="M643.862 0H0V27.3536H643.862V0Z" fill="#E6E6E6"/>
<path d="M20.327 19.0544C23.1269 19.0544 25.3968 16.7845 25.3968 13.9846C25.3968 11.1846 23.1269 8.91479 20.327 8.91479C17.527 8.91479 15.2572 11.1846 15.2572 13.9846C15.2572 16.7845 17.527 19.0544 20.327 19.0544Z" fill="#284769"/>
<path d="M39.5706 19.0544C42.3706 19.0544 44.6404 16.7845 44.6404 13.9846C44.6404 11.1846 42.3706 8.91479 39.5706 8.91479C36.7707 8.91479 34.5009 11.1846 34.5009 13.9846C34.5009 16.7845 36.7707 19.0544 39.5706 19.0544Z" fill="#284769"/>
<path d="M58.8142 19.0544C61.6141 19.0544 63.8839 16.7845 63.8839 13.9846C63.8839 11.1846 61.6141 8.91479 58.8142 8.91479C56.0142 8.91479 53.7444 11.1846 53.7444 13.9846C53.7444 16.7845 56.0142 19.0544 58.8142 19.0544Z" fill="#284769"/>
<path d="M214.824 86.9729H88.8439C80.5596 86.9729 73.8439 93.6886 73.8439 101.973V338.44C73.8439 346.724 80.5596 353.44 88.8439 353.44H214.824C223.109 353.44 229.824 346.724 229.824 338.44V101.973C229.824 93.6886 223.109 86.9729 214.824 86.9729Z" fill="#E6E6E6"/>
<path d="M106.8 336L106.785 329.7L103.695 334.89H102.6L99.525 329.835V336H97.245V325.5H99.255L103.185 332.025L107.055 325.5H109.05L109.08 336H106.8ZM111.406 327.93H113.746V336H111.406V327.93ZM112.576 326.805C112.146 326.805 111.796 326.68 111.526 326.43C111.256 326.18 111.121 325.87 111.121 325.5C111.121 325.13 111.256 324.82 111.526 324.57C111.796 324.32 112.146 324.195 112.576 324.195C113.006 324.195 113.356 324.315 113.626 324.555C113.896 324.795 114.031 325.095 114.031 325.455C114.031 325.845 113.896 326.17 113.626 326.43C113.356 326.68 113.006 326.805 112.576 326.805ZM124.243 327.93V334.65C124.243 336.13 123.858 337.23 123.088 337.95C122.318 338.67 121.193 339.03 119.713 339.03C118.933 339.03 118.193 338.935 117.493 338.745C116.793 338.555 116.213 338.28 115.753 337.92L116.683 336.24C117.023 336.52 117.453 336.74 117.973 336.9C118.493 337.07 119.013 337.155 119.533 337.155C120.343 337.155 120.938 336.97 121.318 336.6C121.708 336.24 121.903 335.69 121.903 334.95V334.605C121.293 335.275 120.443 335.61 119.353 335.61C118.613 335.61 117.933 335.45 117.313 335.13C116.703 334.8 116.218 334.34 115.858 333.75C115.498 333.16 115.318 332.48 115.318 331.71C115.318 330.94 115.498 330.26 115.858 329.67C116.218 329.08 116.703 328.625 117.313 328.305C117.933 327.975 118.613 327.81 119.353 327.81C120.523 327.81 121.413 328.195 122.023 328.965V327.93H124.243ZM119.818 333.69C120.438 333.69 120.943 333.51 121.333 333.15C121.733 332.78 121.933 332.3 121.933 331.71C121.933 331.12 121.733 330.645 121.333 330.285C120.943 329.915 120.438 329.73 119.818 329.73C119.198 329.73 118.688 329.915 118.288 330.285C117.888 330.645 117.688 331.12 117.688 331.71C117.688 332.3 117.888 332.78 118.288 333.15C118.688 333.51 119.198 333.69 119.818 333.69ZM134.551 327.93V336H132.331V335.04C132.021 335.39 131.651 335.66 131.221 335.85C130.791 336.03 130.326 336.12 129.826 336.12C128.766 336.12 127.926 335.815 127.306 335.205C126.686 334.595 126.376 333.69 126.376 332.49V327.93H128.716V332.145C128.716 333.445 129.261 334.095 130.351 334.095C130.911 334.095 131.361 333.915 131.701 333.555C132.041 333.185 132.211 332.64 132.211 331.92V327.93H134.551ZM144.624 331.995C144.624 332.025 144.609 332.235 144.579 332.625H138.474C138.584 333.125 138.844 333.52 139.254 333.81C139.664 334.1 140.174 334.245 140.784 334.245C141.204 334.245 141.574 334.185 141.894 334.065C142.224 333.935 142.529 333.735 142.809 333.465L144.054 334.815C143.294 335.685 142.184 336.12 140.724 336.12C139.814 336.12 139.009 335.945 138.309 335.595C137.609 335.235 137.069 334.74 136.689 334.11C136.309 333.48 136.119 332.765 136.119 331.965C136.119 331.175 136.304 330.465 136.674 329.835C137.054 329.195 137.569 328.7 138.219 328.35C138.879 327.99 139.614 327.81 140.424 327.81C141.214 327.81 141.929 327.98 142.569 328.32C143.209 328.66 143.709 329.15 144.069 329.79C144.439 330.42 144.624 331.155 144.624 331.995ZM140.439 329.58C139.909 329.58 139.464 329.73 139.104 330.03C138.744 330.33 138.524 330.74 138.444 331.26H142.419C142.339 330.75 142.119 330.345 141.759 330.045C141.399 329.735 140.959 329.58 140.439 329.58ZM146.182 324.87H148.522V336H146.182V324.87ZM163.611 334.02V336H154.431V334.425L160.191 327.48H154.551V325.5H163.386V327.075L157.641 334.02H163.611ZM168.304 327.81C169.554 327.81 170.514 328.11 171.184 328.71C171.854 329.3 172.189 330.195 172.189 331.395V336H169.999V334.995C169.559 335.745 168.739 336.12 167.539 336.12C166.919 336.12 166.379 336.015 165.919 335.805C165.469 335.595 165.124 335.305 164.884 334.935C164.644 334.565 164.524 334.145 164.524 333.675C164.524 332.925 164.804 332.335 165.364 331.905C165.934 331.475 166.809 331.26 167.989 331.26H169.849C169.849 330.75 169.694 330.36 169.384 330.09C169.074 329.81 168.609 329.67 167.989 329.67C167.559 329.67 167.134 329.74 166.714 329.88C166.304 330.01 165.954 330.19 165.664 330.42L164.824 328.785C165.264 328.475 165.789 328.235 166.399 328.065C167.019 327.895 167.654 327.81 168.304 327.81ZM168.124 334.545C168.524 334.545 168.879 334.455 169.189 334.275C169.499 334.085 169.719 333.81 169.849 333.45V332.625H168.244C167.284 332.625 166.804 332.94 166.804 333.57C166.804 333.87 166.919 334.11 167.149 334.29C167.389 334.46 167.714 334.545 168.124 334.545ZM179.077 327.81C179.827 327.81 180.507 327.985 181.117 328.335C181.737 328.675 182.222 329.16 182.572 329.79C182.922 330.41 183.097 331.135 183.097 331.965C183.097 332.795 182.922 333.525 182.572 334.155C182.222 334.775 181.737 335.26 181.117 335.61C180.507 335.95 179.827 336.12 179.077 336.12C177.967 336.12 177.122 335.77 176.542 335.07V336H174.307V324.87H176.647V328.785C177.237 328.135 178.047 327.81 179.077 327.81ZM178.672 334.2C179.272 334.2 179.762 334 180.142 333.6C180.532 333.19 180.727 332.645 180.727 331.965C180.727 331.285 180.532 330.745 180.142 330.345C179.762 329.935 179.272 329.73 178.672 329.73C178.072 329.73 177.577 329.935 177.187 330.345C176.807 330.745 176.617 331.285 176.617 331.965C176.617 332.645 176.807 333.19 177.187 333.6C177.577 334 178.072 334.2 178.672 334.2ZM187.786 327.81C189.036 327.81 189.996 328.11 190.666 328.71C191.336 329.3 191.671 330.195 191.671 331.395V336H189.481V334.995C189.041 335.745 188.221 336.12 187.021 336.12C186.401 336.12 185.861 336.015 185.401 335.805C184.951 335.595 184.606 335.305 184.366 334.935C184.126 334.565 184.006 334.145 184.006 333.675C184.006 332.925 184.286 332.335 184.846 331.905C185.416 331.475 186.291 331.26 187.471 331.26H189.331C189.331 330.75 189.176 330.36 188.866 330.09C188.556 329.81 188.091 329.67 187.471 329.67C187.041 329.67 186.616 329.74 186.196 329.88C185.786 330.01 185.436 330.19 185.146 330.42L184.306 328.785C184.746 328.475 185.271 328.235 185.881 328.065C186.501 327.895 187.136 327.81 187.786 327.81ZM187.606 334.545C188.006 334.545 188.361 334.455 188.671 334.275C188.981 334.085 189.201 333.81 189.331 333.45V332.625H187.726C186.766 332.625 186.286 332.94 186.286 333.57C186.286 333.87 186.401 334.11 186.631 334.29C186.871 334.46 187.196 334.545 187.606 334.545ZM193.789 324.87H196.129V336H193.789V324.87ZM201.556 327.81C202.806 327.81 203.766 328.11 204.436 328.71C205.106 329.3 205.441 330.195 205.441 331.395V336H203.251V334.995C202.811 335.745 201.991 336.12 200.791 336.12C200.171 336.12 199.631 336.015 199.171 335.805C198.721 335.595 198.376 335.305 198.136 334.935C197.896 334.565 197.776 334.145 197.776 333.675C197.776 332.925 198.056 332.335 198.616 331.905C199.186 331.475 200.061 331.26 201.241 331.26H203.101C203.101 330.75 202.946 330.36 202.636 330.09C202.326 329.81 201.861 329.67 201.241 329.67C200.811 329.67 200.386 329.74 199.966 329.88C199.556 330.01 199.206 330.19 198.916 330.42L198.076 328.785C198.516 328.475 199.041 328.235 199.651 328.065C200.271 327.895 200.906 327.81 201.556 327.81ZM201.376 334.545C201.776 334.545 202.131 334.455 202.441 334.275C202.751 334.085 202.971 333.81 203.101 333.45V332.625H201.496C200.536 332.625 200.056 332.94 200.056 333.57C200.056 333.87 200.171 334.11 200.401 334.29C200.641 334.46 200.966 334.545 201.376 334.545Z" fill="#999999"/>
<path d="M371.733 86.9729H271.75C263.465 86.9729 256.75 93.6886 256.75 101.973V145.321C256.75 153.605 263.465 160.321 271.75 160.321H371.733C380.018 160.321 386.733 153.605 386.733 145.321V101.973C386.733 93.6886 380.018 86.9729 371.733 86.9729Z" fill="url(#paint0_linear)" fill-opacity="0.25"/>
<path d="M371.733 180.747H271.75C263.465 180.747 256.75 187.463 256.75 195.747V244.666C256.75 252.95 263.465 259.666 271.75 259.666H371.733C380.018 259.666 386.733 252.95 386.733 244.666V195.747C386.733 187.463 380.018 180.747 371.733 180.747Z" fill="#E6E6E6"/>
<path d="M371.733 280.092H271.75C263.465 280.092 256.75 286.807 256.75 295.092V338.44C256.75 346.724 263.465 353.44 271.75 353.44H371.733C380.018 353.44 386.733 346.724 386.733 338.44V295.092C386.733 286.807 380.018 280.092 371.733 280.092Z" fill="#E6E6E6"/>
<path d="M555.568 86.9729H429.587C421.303 86.9729 414.587 93.6886 414.587 101.973V188.098C414.587 196.382 421.303 203.098 429.587 203.098H555.568C563.852 203.098 570.568 196.382 570.568 188.098V101.973C570.568 93.6886 563.852 86.9729 555.568 86.9729Z" fill="#E6E6E6"/>
<path d="M555.568 237.315H429.587C421.303 237.315 414.587 244.031 414.587 252.315V338.44C414.587 346.724 421.303 353.44 429.587 353.44H555.568C563.852 353.44 570.568 346.724 570.568 338.44V252.315C570.568 244.031 563.852 237.315 555.568 237.315Z" fill="url(#paint1_linear)" fill-opacity="0.25"/>
<path d="M450.094 70.8287C430.09 53.949 405.611 43.2475 379.636 40.0264C353.661 36.8053 327.309 41.2035 303.788 52.6857C280.267 64.168 260.591 82.2392 247.153 104.7C233.715 127.162 227.095 153.045 228.099 179.199C229.103 205.354 237.688 230.653 252.808 252.018C267.929 273.383 288.933 289.893 313.265 299.538C337.597 309.183 364.208 311.548 389.86 306.345C415.512 301.142 439.098 288.595 457.749 270.232L623.367 409.979C624.616 411.033 626.06 411.831 627.617 412.327C629.174 412.823 630.814 413.007 632.442 412.869C634.07 412.731 635.655 412.274 637.107 411.523C638.558 410.773 639.848 409.744 640.901 408.495C641.955 407.246 642.753 405.802 643.248 404.245C643.744 402.688 643.928 401.048 643.79 399.42C643.652 397.792 643.194 396.207 642.444 394.755C641.693 393.304 640.664 392.015 639.415 390.961L473.797 251.213C493.036 223.6 501.271 189.798 496.886 156.43C492.501 123.062 475.814 92.534 450.094 70.8287V70.8287ZM439.417 237.756C426.515 253.047 409.368 264.169 390.145 269.715C370.922 275.26 350.486 274.981 331.421 268.913C312.357 262.844 295.52 251.258 283.04 235.621C270.56 219.983 262.997 200.996 261.308 181.06C259.619 161.124 263.88 141.136 273.551 123.621C283.223 106.107 297.871 91.8541 315.642 82.6647C333.414 73.4753 353.512 69.7622 373.394 71.995C393.276 74.2277 412.05 82.3061 427.341 95.2085C447.845 112.51 460.637 137.248 462.902 163.981C465.166 190.714 456.719 217.252 439.417 237.756V237.756Z" fill="#919191"/>
<path opacity="0.3" d="M296.869 249.833C277.463 233.457 264.925 210.381 261.745 185.189C258.565 159.996 264.976 134.529 279.704 113.844C277.77 115.792 275.9 117.832 274.094 119.964C265.526 130.117 259.042 141.858 255.012 154.516C250.981 167.175 249.484 180.504 250.605 193.741C251.726 206.979 255.443 219.866 261.545 231.666C267.647 243.467 276.013 253.95 286.166 262.518C296.319 271.085 308.061 277.568 320.72 281.598C333.379 285.627 346.708 287.124 359.945 286.002C373.182 284.88 386.069 281.161 397.869 275.059C409.67 268.956 420.152 260.589 428.719 250.435C430.52 248.301 432.216 246.114 433.808 243.876C415.895 261.874 391.87 272.478 366.501 273.581C341.133 274.685 316.277 266.208 296.869 249.833V249.833Z" fill="black"/>
<g filter="url(#filter0_d)">
<path d="M152.343 167L103 184.596L110.526 249.839L152.343 273L194.16 249.839L201.686 184.596L152.343 167Z" fill="#999999"/>
<path d="M152.343 167V178.766V178.713V232.402V273L194.16 249.839L201.686 184.596L152.343 167Z" fill="#7C7C7C"/>
<path d="M152.343 178.713L121.497 247.878H132.998L139.199 232.402H165.381L171.582 247.878H183.083L152.343 178.713ZM161.353 222.862H143.333L152.343 201.185L161.353 222.862Z" fill="#CDCDCD"/>
</g>
<defs>
<filter id="filter0_d" x="78" y="157" width="148.686" height="156" filterUnits="userSpaceOnUse" color-interpolation-filters="sRGB">
<feFlood flood-opacity="0" result="BackgroundImageFix"/>
<feColorMatrix in="SourceAlpha" type="matrix" values="0 0 0 0 0 0 0 0 0 0 0 0 0 0 0 0 0 0 127 0"/>
<feOffset dy="15"/>
<feGaussianBlur stdDeviation="12.5"/>
<feColorMatrix type="matrix" values="0 0 0 0 0 0 0 0 0 0 0 0 0 0 0 0 0 0 0.5 0"/>
<feBlend mode="normal" in2="BackgroundImageFix" result="effect1_dropShadow"/>
<feBlend mode="normal" in="SourceGraphic" in2="effect1_dropShadow" result="shape"/>
</filter>
<linearGradient id="paint0_linear" x1="321.742" y1="86.9729" x2="321.742" y2="160.321" gradientUnits="userSpaceOnUse">
<stop stop-color="#007BFF"/>
<stop offset="1" stop-color="#0064CF"/>
</linearGradient>
<linearGradient id="paint1_linear" x1="492.577" y1="237.315" x2="492.577" y2="353.44" gradientUnits="userSpaceOnUse">
<stop stop-color="#007BFF"/>
<stop offset="1" stop-color="#0064CF"/>
</linearGradient>
</defs>
</svg>
